<?xml version="1.0" encoding="utf-8"?>
<!-- Generator: Adobe Illustrator 25.4.1, SVG Export Plug-In . SVG Version: 6.00 Build 0)  -->
<svg version="1.1" id="Layer_1" xmlns="http://www.w3.org/2000/svg" xmlns:xlink="http://www.w3.org/1999/xlink" x="0px" y="0px"
	 viewBox="0 0 772.41 142.48" style="enable-background:new 0 0 772.41 142.48;" xml:space="preserve">
<style type="text/css">
	.st0{fill:#2888C8;}
	.st1{fill:#2749A0;}
	.st2{fill:#333333;}
</style>
<g>
	<g>
		<path class="st0" d="M70.3,142.48c-9.18,0-18.36-1.82-27.08-5.47c-17.32-7.23-30.78-20.78-37.91-38.14
			c-7.13-17.36-7.07-36.46,0.16-53.78S26.25,14.31,43.61,7.18c0.76-0.31,1.54-0.62,2.31-0.9c7.07-2.62,14.91,0.98,17.53,8.04
			c2.62,7.06-0.98,14.91-8.04,17.53c-0.48,0.18-0.96,0.36-1.43,0.56c-10.63,4.37-18.92,12.6-23.34,23.2
			c-4.42,10.59-4.46,22.28-0.1,32.9c4.36,10.62,12.6,18.91,23.19,23.33c10.59,4.42,22.28,4.46,32.9,0.1
			c21.93-9,32.44-34.17,23.43-56.09c-2.86-6.97,0.47-14.94,7.43-17.8c6.97-2.86,14.94,0.47,17.8,7.44
			c14.72,35.84-2.46,76.97-38.3,91.69C88.38,140.71,79.34,142.48,70.3,142.48z"/>
		<path class="st1" d="M148.17,138.03c-5.83,0-11.22-3.76-13.03-9.62c-2.22-7.2,1.82-14.83,9.01-17.06
			c18.12-5.59,30.29-22.1,30.29-41.08c0-23.7-19.28-42.99-42.99-42.99c-23.7,0-42.99,19.28-42.99,42.99c0,4.81,0.79,9.52,2.33,14.01
			c2.45,7.12-1.33,14.89-8.45,17.34c-7.13,2.45-14.89-1.33-17.34-8.46c-2.53-7.36-3.82-15.06-3.82-22.9
			C61.19,31.52,92.71,0,131.45,0s70.27,31.52,70.27,70.27c0,31.02-19.9,58.01-49.53,67.15C150.85,137.83,149.5,138.03,148.17,138.03
			z"/>
	</g>
	<g>
		<path class="st2" d="M244.81,101.74V16.88h35.38c6.35,0,11.68,0.9,15.97,2.69c4.3,1.8,7.53,4.31,9.7,7.54
			c2.17,3.23,3.25,6.97,3.25,11.23c0,3.23-0.68,6.11-2.03,8.64c-1.35,2.53-3.22,4.62-5.59,6.28c-2.38,1.66-5.12,2.82-8.25,3.48v0.83
			c3.43,0.17,6.59,1.09,9.51,2.78c2.91,1.69,5.25,4.03,7.02,7.02c1.77,3,2.65,6.54,2.65,10.63c0,4.56-1.16,8.63-3.48,12.2
			c-2.32,3.58-5.68,6.39-10.07,8.45c-4.39,2.06-9.72,3.09-15.99,3.09H244.81z M265.32,51.77h11.35c2.24,0,4.23-0.37,5.97-1.12
			c1.74-0.75,3.1-1.82,4.08-3.23c0.98-1.41,1.47-3.11,1.47-5.1c0-2.84-1.01-5.08-3.03-6.71c-2.02-1.63-4.74-2.44-8.16-2.44h-11.68
			V51.77z M265.32,85.2H278c4.45,0,7.73-0.84,9.84-2.53c2.11-1.69,3.17-4.03,3.17-7.04c0-2.18-0.51-4.07-1.53-5.66
			c-1.02-1.59-2.47-2.82-4.35-3.69c-1.88-0.87-4.13-1.31-6.75-1.31h-13.05V85.2z"/>
		<path class="st2" d="M334.68,125.6c-2.43,0-4.72-0.19-6.88-0.56c-2.16-0.37-4.01-0.86-5.55-1.47l4.48-14.71
			c1.99,0.66,3.79,1.05,5.41,1.16s3.01-0.14,4.19-0.77c1.17-0.62,2.08-1.72,2.71-3.29l0.79-1.91l-22.62-65.96h21.21l11.72,45.41
			h0.66l11.89-45.41h21.34l-23.99,69.73c-1.16,3.48-2.8,6.55-4.91,9.22c-2.11,2.67-4.83,4.76-8.16,6.28
			C343.63,124.84,339.54,125.6,334.68,125.6z"/>
		<path class="st2" d="M425.78,86.2c-0.44,0.11-1.1,0.24-1.97,0.39c-0.87,0.15-1.69,0.23-2.47,0.23c-1.08,0-2-0.16-2.78-0.48
			c-0.77-0.32-1.36-0.86-1.76-1.62c-0.4-0.76-0.6-1.76-0.6-3V53.01h11.48V38.09h-11.48V22.85h-20.26v15.25h-8.41v14.92h8.41v30.95
			c-0.06,4.31,0.81,7.89,2.59,10.73c1.78,2.85,4.36,4.94,7.75,6.28s7.45,1.9,12.2,1.68c2.43-0.11,4.52-0.37,6.28-0.79
			c1.75-0.42,3.11-0.76,4.08-1.04L425.78,86.2z"/>
		<path class="st2" d="M497.34,74.8v-5.05c0-5.22-0.76-9.85-2.28-13.9c-1.52-4.05-3.65-7.45-6.38-10.21
			c-2.73-2.76-5.98-4.85-9.74-6.26c-3.76-1.41-7.9-2.11-12.43-2.11c-6.41,0-11.97,1.37-16.7,4.12c-4.72,2.75-8.38,6.59-10.98,11.52
			c-2.6,4.93-3.89,10.68-3.89,17.26c0,6.77,1.29,12.6,3.87,17.51c2.58,4.9,6.28,8.67,11.1,11.31c4.82,2.64,10.56,3.96,17.22,3.96
			c5.55,0,10.44-0.85,14.67-2.55c4.23-1.7,7.64-4.09,10.25-7.17c2.61-3.08,4.3-6.7,5.08-10.88l-18.6-0.54
			c-0.53,1.41-1.31,2.6-2.36,3.56c-1.05,0.97-2.31,1.7-3.77,2.2c-1.46,0.5-3.09,0.75-4.89,0.75c-2.6,0-4.83-0.54-6.71-1.62
			c-1.88-1.08-3.33-2.59-4.35-4.54c-1.02-1.95-1.53-4.22-1.53-6.82V74.8H497.34z M460.84,53.4c1.8-1.01,3.83-1.51,6.09-1.51
			c2.24,0,4.22,0.48,5.95,1.43c1.73,0.95,3.09,2.27,4.08,3.96s1.51,3.6,1.53,5.76h-23.55c0.1-2.05,0.63-3.89,1.63-5.53
			C457.62,55.78,459.04,54.41,460.84,53.4z"/>
		<path class="st2" d="M507.74,101.74V16.88h57.92v16.66h-37.41v17.4h33.73v16.7h-33.73v34.1H507.74z"/>
		<path class="st2" d="M596.2,16.88v84.86h-20.26V16.88H596.2z"/>
		<path class="st2" d="M638.75,102.94c-6.68,0-12.42-1.37-17.22-4.12c-4.79-2.75-8.48-6.59-11.06-11.52
			c-2.58-4.93-3.87-10.65-3.87-17.17c0-6.55,1.29-12.29,3.87-17.22c2.58-4.93,6.27-8.77,11.06-11.52
			c4.79-2.75,10.53-4.12,17.22-4.12c6.68,0,12.42,1.37,17.22,4.12c4.79,2.75,8.48,6.59,11.06,11.52c2.58,4.93,3.87,10.67,3.87,17.22
			c0,6.52-1.29,12.24-3.87,17.17c-2.58,4.93-6.27,8.77-11.06,11.52C651.17,101.56,645.43,102.94,638.75,102.94z M638.87,87.65
			c2.43,0,4.49-0.75,6.17-2.24c1.68-1.49,2.98-3.56,3.87-6.21c0.9-2.65,1.35-5.72,1.35-9.2c0-3.54-0.45-6.63-1.35-9.28
			s-2.19-4.72-3.87-6.21c-1.69-1.49-3.74-2.24-6.17-2.24c-2.51,0-4.63,0.75-6.36,2.24c-1.73,1.49-3.04,3.56-3.94,6.21
			c-0.9,2.65-1.35,5.75-1.35,9.28c0,3.48,0.45,6.55,1.35,9.2c0.9,2.65,2.21,4.72,3.94,6.21C634.24,86.9,636.36,87.65,638.87,87.65z"
			/>
		<path class="st2" d="M691.82,101.74l-16.57-63.64h20.34l8.58,40.77h0.54l9.2-40.77h19.85l9.45,40.48h0.54l8.33-40.48h20.34
			l-16.61,63.64h-21.67l-9.94-37.08h-0.7l-9.94,37.08H691.82z"/>
	</g>
</g>
</svg>
